<svg xmlns="http://www.w3.org/2000/svg" viewBox="0 0 100 100" role="img" aria-label="SK hynix logo">
  <rect width="100" height="100" rx="14" fill="#fff"/>
  <path d="M50 17c-8 0-12 6-12 12 0 5 3 8 8 11-8-2-17 1-17 10 0 6 5 10 12 10 4 0 7-2 9-5 2 3 5 5 9 5 7 0 12-4 12-10 0-9-9-12-17-10 5-3 8-6 8-11 0-6-4-12-12-12Z" fill="#ed1c24"/>
  <path d="M50 20c7 0 11 5 11 10 0 6-5 9-11 13 6-2 16-1 16 7 0 5-4 8-10 8-4 0-6-3-8-7-2 4-4 7-8 7-6 0-10-3-10-8 0-8 10-9 16-7-6-4-11-7-11-13 0-5 4-10 11-10Z" fill="#f58220"/>
  <text x="50" y="84" text-anchor="middle" font-family="Arial, Helvetica, sans-serif" font-size="9" font-weight="800"><tspan fill="#ed1c24">SK</tspan><tspan fill="#f58220"> hynix</tspan></text>
</svg>
